<?xml version="1.0" encoding="utf-8"?>
<!-- Generator: Adobe Illustrator 26.3.1, SVG Export Plug-In . SVG Version: 6.00 Build 0)  -->
<svg version="1.1" id="Capa_1" xmlns="http://www.w3.org/2000/svg" xmlns:xlink="http://www.w3.org/1999/xlink" x="0px" y="0px"
	 viewBox="0 0 307.5 307.5" style="enable-background:new 0 0 307.5 307.5;" xml:space="preserve">
<style type="text/css">
	.st0{fill:#FFFFFF;}
</style>
<g>
	<g id="Layer_5_29_">
		<g>
			<g>
				<g>
					<path class="st0" d="M241.2,200.5c0,2.7-2.2,4.9-4.9,4.9H71.2c-2.7,0-4.9-2.2-4.9-4.9v-3.3c0-2.7,2.2-4.9,4.9-4.9h165.1
						c2.7,0,4.9,2.2,4.9,4.9V200.5L241.2,200.5z"/>
				</g>
				<g>
					<path class="st0" d="M140.2,65c0,2.7-2.2,4.9-4.9,4.9H71.2c-2.7,0-4.9-2.2-4.9-4.9v-3.3c0-2.7,2.2-4.9,4.9-4.9h64.2
						c2.7,0,4.9,2.2,4.9,4.9L140.2,65L140.2,65z"/>
				</g>
				<g>
					<path class="st0" d="M238.7,245.7c0,2.7-2.2,4.9-4.9,4.9h-64.2c-2.7,0-4.9-2.2-4.9-4.9v-3.3c0-2.7,2.2-4.9,4.9-4.9h64.2
						c2.7,0,4.9,2.2,4.9,4.9V245.7z"/>
				</g>
				<g>
					<path class="st0" d="M174.2,110.2c0,2.7-2.2,4.9-4.9,4.9H71.2c-2.7,0-4.9-2.2-4.9-4.9v-3.3c0-2.7,2.2-4.9,4.9-4.9h98.2
						c2.7,0,4.9,2.2,4.9,4.9V110.2z"/>
				</g>
				<g>
					<path class="st0" d="M241.2,155.4c0,2.7-2.2,4.9-4.9,4.9H71.2c-2.7,0-4.9-2.2-4.9-4.9v-3.3c0-2.7,2.2-4.9,4.9-4.9h165.1
						c2.7,0,4.9,2.2,4.9,4.9V155.4L241.2,155.4z"/>
				</g>
			</g>
			<path class="st0" d="M272.4,74.5L193.3,9.5C186.7,4.1,175.4,0,166.9,0H42.4C31.7,0,22.9,8.8,22.9,19.5c0,0,0,210,0,267.8
				c0,20.1,19,20.1,19.5,20.1c48.3,0,222.6,0,222.6,0c10.8,0,19.5-8.8,19.5-19.5V100.2C284.5,91.2,279.3,80.2,272.4,74.5z
				 M187.9,29.5c0-4.8,4-1.1,4-1.1l62.7,53.6c0,0,4,3.9-2.9,3.9c-14.7,0-58.7,0-58.7,0c-2.8,0-5.1-2.3-5.1-5.1
				C187.9,80.8,187.9,42.3,187.9,29.5z M265,293c0,0-179.1,0-224,0c-0.8,0-3.6-0.2-3.6-4.2c0-54.4,0-269.3,0-269.3
				c0-2.7,2.3-5.1,5.1-5.1h124.5c2.1,0,6.5,1.1,6.5,7.1v59.2c0,10.8,8.8,19.5,19.5,19.5h73.5c1.3,0,3.6,0.9,3.6,4.2
				c0,0.1,0,183.4,0,183.4C270.1,290.7,267.8,293,265,293z"/>
		</g>
	</g>
</g>
</svg>
